# xmcd
#
# Track frame offsets:
#	150
#	14664
#	34455
#	48503
#	64293
#	77734
#	89278
#	113464
#	135036
#	147464
#	161984
#	185567
#
# Disc length: 2678 seconds
#
# Revision: 1
# Processed by: cddbd v1.4PL0 Copyright (c) Steve Scherf et al.
# Submitted via: audiograbber 1.82.02
#
DISCID=a60a740c
DTITLE=Ciro Fogliatta - Miss Parrot
DYEAR=2003
DGENRE=Blues
TTITLE0=God Bless The Child
TTITLE1=Blues Because My Baby
TTITLE2=Choo Choo Ch' Boogie
TTITLE3=Love Me
TTITLE4=Country Girl (Fantasy On The Bayou)
TTITLE5=Miss Parrot (One For The Road)
TTITLE6=Dancing In The Honky Tonk
TTITLE7=Route 66
TTITLE8=Doctor Jazz
TTITLE9=The Spirit Of 1969
TTITLE10=You Can't Make It
TTITLE11=Looking The World Over
EXTD=
EXTT0=
EXTT1=
EXTT2=
EXTT3=
EXTT4=
EXTT5=
EXTT6=
EXTT7=
EXTT8=
EXTT9=
EXTT10=
EXTT11=
PLAYORDER=
